<svg xmlns="http://www.w3.org/2000/svg" viewBox="0 0 64 64" role="img" aria-label="Qyro">
  <defs>
    <linearGradient id="qg" x1="8" y1="6" x2="56" y2="58" gradientUnits="userSpaceOnUse">
      <stop offset="0%" stop-color="#7C3AED"/>
      <stop offset="0.48" stop-color="#C084FC"/>
      <stop offset="1" stop-color="#22D3EE"/>
    </linearGradient>
    <linearGradient id="qg2" x1="36" y1="38" x2="58" y2="58" gradientUnits="userSpaceOnUse">
      <stop offset="0%" stop-color="#C084FC"/>
      <stop offset="1" stop-color="#22D3EE"/>
    </linearGradient>
    <path id="qpetal" d="M32 30.5C26.8 27.1 24.8 18.4 29.1 8.9C30.2 6.4 33.8 6.4 34.9 8.9C39.2 18.4 37.2 27.1 32 30.5Z"/>
    <mask id="qcut" maskUnits="userSpaceOnUse">
      <rect width="64" height="64" fill="#fff"/>
      <path d="M36.00 33.00 L47.00 36.00 L58.00 45.00 L68.00 57.00 L59.00 68.00 L38.00 49.00 Z" fill="#000"/>
      <circle cx="32" cy="32" r="7.2" fill="#000"/>
    </mask>
  </defs>
  
  <g>
    <g mask="url(#qcut)">
      <g fill="url(#qg)">
      <use href="#qpetal" transform="rotate(0 32 32)"/>
      <use href="#qpetal" transform="rotate(60 32 32)"/>
      <use href="#qpetal" transform="rotate(120 32 32)"/>
      <use href="#qpetal" transform="rotate(180 32 32)"/>
      <use href="#qpetal" transform="rotate(240 32 32)"/>
      <use href="#qpetal" transform="rotate(300 32 32)"/>
      </g>
    </g>
    <path d="M38 39C44 42 50 48 57 57" fill="none" stroke="url(#qg2)" stroke-width="4.7" stroke-linecap="round"/>
    <path d="M52.6 52.2L59.2 58L51.8 56.1" fill="url(#qg2)"/>
    <path d="M53.5 8.2V15.4M49.9 11.8H57.1" stroke="#67E8F9" stroke-width="1.35" stroke-linecap="round"/>
    <circle cx="53.5" cy="11.8" r="1.55" fill="#22D3EE"/>
  </g>
</svg>
